<?xml version="1.0" encoding="utf-8"?>
<svg width="456.68896484375" height="162.78599548339844" viewBox="29.754 156.049 456.689 162.786" xmlns="http://www.w3.org/2000/svg">
  <defs>
    <style id="bx-google-fonts">@import url(https://fonts.googleapis.com/css?family=Open+Sans:300,300italic,400,400italic,600,600italic,700,700italic,800,800italic);</style>
  </defs>
  <ellipse transform="matrix(1.0000009536743164, 0, 0, 1, -231.2133178710937, 5.347671985626192)" cx="309.779" cy="209.527" rx="11.028" ry="11.028" style="fill: rgb(173, 220, 166);"/>
  <ellipse transform="matrix(1.0000009536743164, 0, 0, 1, -231.22018432617185, 31.347671508789034)" cx="309.779" cy="209.527" rx="11.028" ry="11.028" style="fill: rgb(173, 220, 166);"/>
  <ellipse transform="matrix(1.0000009536743164, 0, 0, 1, -187.2272796630859, 18.347671508789062)" cx="309.779" cy="209.527" rx="11.028" ry="11.028" style="fill: rgb(216, 216, 216);"/>
  <ellipse transform="matrix(1.0000009536743164, 0, 0, 1, -187.234146118164, 44.34767150878906)" cx="309.779" cy="209.527" rx="11.028" ry="11.028" style="fill: rgb(216, 216, 216);"/>
  <ellipse transform="matrix(1.0000009536743164, 0, 0, 1, -187.23551940917966, -7.652328014373779)" cx="309.779" cy="209.527" rx="11.028" ry="11.028" style="fill: rgb(216, 216, 216);"/>
  <ellipse transform="matrix(1.0000009536743164, 0, 0, 1, -144.24789428710935, 18.347671508789062)" cx="309.779" cy="209.527" rx="11.028" ry="11.028" style="fill: rgb(173, 220, 166);"/>
  <path d="M 111.435 228.002 L 89.495 241.018 L 111.559 201.848 L 89.619 215.359 L 111.435 228.002 Z" style="fill: none; stroke: black;" transform="matrix(1, 0, 0, 1, 5.684341886080802e-14, 0)"/>
  <path d="M 88.379 242.009 L 111.435 254.653 L 89.495 215.731" style="fill: none; stroke: black;" transform="matrix(1, 0, 0, 1, 5.684341886080802e-14, 0)"/>
  <path d="M 133.623 202.096 L 154.571 228.87 L 133.623 255.025" style="fill: none; stroke: black;" transform="matrix(1, 0, 0, 1, 5.684341886080802e-14, 0)"/>
  <path d="M 133.623 228.126 L 154.819 228.87" style="fill: none; stroke: black;" transform="matrix(1, 0, 0, 1, 5.684341886080802e-14, 0)"/>
  <ellipse transform="matrix(1.0000009536743164, 0, 0, 1, -84.95957946777341, 2.250519037246704)" cx="309.779" cy="209.527" rx="11.028" ry="11.028" style="fill: rgb(216, 216, 216);"/>
  <ellipse transform="matrix(1.0000009536743164, 0, 0, 1, -84.9664459228515, 28.250518798828125)" cx="309.779" cy="209.527" rx="11.028" ry="11.028" style="fill: rgb(216, 216, 216);"/>
  <ellipse cx="268.806" cy="224.778" rx="11.028" ry="11.028" style="fill: rgb(173, 220, 166);" transform="matrix(1, 0, 0, 1, 5.684341886080802e-14, 0)"/>
  <ellipse cx="268.799" cy="250.778" rx="11.028" ry="11.028" style="fill: rgb(173, 220, 166);" transform="matrix(1, 0, 0, 1, 5.684341886080802e-14, 0)"/>
  <ellipse cx="268.798" cy="198.778" rx="11.028" ry="11.028" style="fill: rgb(173, 220, 166);" transform="matrix(1, 0, 0, 1, 5.684341886080802e-14, 0)"/>
  <ellipse transform="matrix(1.0000029802322388, 0, 0, 1, 2.0053989887238117, 15.250518798828125)" cx="309.779" cy="209.527" rx="11.028" ry="11.028" style="fill: rgb(216, 216, 216);"/>
  <path d="M 257.689 224.905 L 235.749 237.921 L 257.813 198.751 L 235.873 212.262 L 257.689 224.905 Z" style="fill: none; stroke: black;" transform="matrix(1, 0, 0, 1, 5.684341886080802e-14, 0)"/>
  <path d="M 234.633 238.912 L 257.689 251.556 L 235.749 212.634" style="fill: none; stroke: black;" transform="matrix(1, 0, 0, 1, 5.684341886080802e-14, 0)"/>
  <path d="M 279.877 198.999 L 300.825 225.773 L 279.877 251.928" style="fill: none; stroke: black;" transform="matrix(1, 0, 0, 1, 5.684341886080802e-14, 0)"/>
  <path d="M 279.877 225.029 L 301.073 225.773" style="fill: none; stroke: black;" transform="matrix(1, 0, 0, 1, 5.684341886080802e-14, 0)"/>
  <ellipse cx="255.502" cy="214.875" rx="11.028" ry="11.028" style="fill: rgb(173, 220, 166);" transform="matrix(0.9999989867210388, 0, 0, 1, 100.03662109375006, 0)"/>
  <ellipse cx="355.495" cy="240.875" rx="11.028" ry="11.028" style="fill: rgb(173, 220, 166);" transform="matrix(1, 0, 0, 1, 5.684341886080802e-14, 0)"/>
  <ellipse cx="399.503" cy="227.875" rx="11.028" ry="11.028" style="fill: rgb(216, 216, 216);" transform="matrix(1, 0, 0, 1, 5.684341886080802e-14, 0)"/>
  <ellipse cx="399.496" cy="253.875" rx="11.028" ry="11.028" style="fill: rgb(216, 216, 216);" transform="matrix(1, 0, 0, 1, 5.684341886080802e-14, 0)"/>
  <ellipse cx="399.495" cy="201.875" rx="11.028" ry="11.028" style="fill: rgb(216, 216, 216);" transform="matrix(1, 0, 0, 1, 5.684341886080802e-14, 0)"/>
  <ellipse cx="442.5" cy="227.875" rx="11.028" ry="11.028" style="fill: rgb(173, 220, 166);" transform="matrix(1, 0, 0, 1, 5.684341886080802e-14, 0)"/>
  <path d="M 388.435 228.002 L 366.495 241.018 L 388.559 201.848 L 366.619 215.359 L 388.435 228.002 Z" style="fill: none; stroke: black;" transform="matrix(1, 0, 0, 1, 5.684341886080802e-14, 0)"/>
  <path d="M 365.379 242.009 L 388.435 254.653 L 366.495 215.731" style="fill: none; stroke: black;" transform="matrix(1, 0, 0, 1, 5.684341886080802e-14, 0)"/>
  <path d="M 410.623 202.096 L 431.571 228.87 L 410.623 255.025" style="fill: none; stroke: black;" transform="matrix(1, 0, 0, 1, 5.684341886080802e-14, 0)"/>
  <path d="M 410.623 228.126 L 431.819 228.87" style="fill: none; stroke: black;" transform="matrix(1, 0, 0, 1, 5.684341886080802e-14, 0)"/>
  <rect transform="matrix(1.0000020265579224, 0, 0, 0.9999979734420776, 352.41400146484375, 178.15155029296872)" x="40.702" y="19.189" width="5.757" height="3.636" style="fill: rgb(162, 162, 162);"/>
  <rect transform="matrix(1.0000009536743164, 0, 0, 0.9999979734420776, 359.4134826660156, 178.1517639160156)" x="40.702" y="19.189" width="5.757" height="3.636" style="fill: rgb(162, 162, 162);"/>
  <rect transform="matrix(1.0000020265579224, 0, 0, 0.9999979734420776, 359.4130859375001, 183.15176391601565)" x="40.702" y="19.189" width="5.757" height="3.636" style="fill: rgb(162, 162, 162);"/>
  <rect transform="matrix(1.0000009536743164, 0, 0, 0.9999979734420776, 352.4125671386719, 183.1518249511719)" x="40.702" y="19.189" width="5.757" height="3.636" style="fill: rgb(162, 162, 162);"/>
  <rect transform="matrix(1.0000020265579224, 0, 0, 0.9999979734420776, 352.4118652343751, 204.15225219726565)" x="40.702" y="19.189" width="5.757" height="3.636" style="fill: rgb(162, 162, 162);"/>
  <rect transform="matrix(1.0000009536743164, 0, 0, 0.9999979734420776, 359.4113464355469, 204.15246582031247)" x="40.702" y="19.189" width="5.757" height="3.636" style="fill: rgb(162, 162, 162);"/>
  <rect transform="matrix(1.0000020265579224, 0, 0, 0.9999979734420776, 359.41094970703125, 209.15246582031247)" x="40.702" y="19.189" width="5.757" height="3.636" style="fill: rgb(162, 162, 162);"/>
  <rect transform="matrix(1.0000009536743164, 0, 0, 0.9999979734420776, 352.4104309082031, 209.15252685546872)" x="40.702" y="19.189" width="5.757" height="3.636" style="fill: rgb(162, 162, 162);"/>
  <rect transform="matrix(1.0000009536743164, 0, 0, 0.9999979734420776, 352.4098205566406, 231.1529235839844)" x="40.702" y="19.189" width="5.757" height="3.636" style="fill: rgb(162, 162, 162);"/>
  <rect transform="matrix(1.0000020265579224, 0, 0, 0.9999979734420776, 359.4092712402344, 231.15313720703122)" x="40.702" y="19.189" width="5.757" height="3.636" style="fill: rgb(162, 162, 162);"/>
  <rect transform="matrix(1.0000009536743164, 0, 0, 0.9999979734420776, 359.4089050292969, 236.15313720703128)" x="40.702" y="19.189" width="5.757" height="3.636" style="fill: rgb(162, 162, 162);"/>
  <rect transform="matrix(1.0000020265579224, 0, 0, 0.9999979734420776, 352.40835571289074, 236.15319824218753)" x="40.702" y="19.189" width="5.757" height="3.636" style="fill: rgb(162, 162, 162);"/>
  <path d="M 405.822 199.168 C 405.822 199.168 406.676 198.647 406.753 198.57 C 407.135 198.188 407.618 197.646 407.618 196.907 C 407.618 196.874 407.75 195.71 407.684 195.71 C 407.684 195.71 406.695 194.783 406.421 194.646 C 404.293 193.582 403.029 195.144 403.029 197.173 C 403.029 197.264 403.095 197.372 403.095 197.372" style="stroke: black; fill: none; stroke-width: 0.2;" transform="matrix(1, 0, 0, 1, 5.684341886080802e-14, 0)"/>
  <path d="M 393.053 199.501 C 389.809 199.501 391.482 194.76 394.05 194.247 C 395.751 193.907 395.715 195.445 396.378 196.109 C 396.393 196.124 396.445 197.306 396.445 197.306" style="stroke: black; fill: none; stroke-width: 0.2;" transform="matrix(1, 0, 0, 1, 5.684341886080802e-14, 0)"/>
  <path d="M 393.053 204.223 C 392.986 204.223 392.028 204.183 391.989 204.223 C 391.109 205.103 391.175 206.41 392.521 207.083 C 393.364 207.504 395.411 207.717 396.046 207.083 C 396.123 207.005 396.578 205.752 396.578 205.752" style="stroke: black; fill: none; stroke-width: 0.2;" transform="matrix(1, 0, 0, 1, 5.684341886080802e-14, 0)"/>
  <path style="stroke: black; fill: none; stroke-width: 0.2;" d="M 405.889 204.289 C 405.889 204.289 408.871 204.366 408.083 205.154 C 407.614 205.623 407.421 206.482 406.886 207.016 C 405.293 208.609 403.095 207.929 403.095 205.952 L 403.095 205.952" transform="matrix(1, 0, 0, 1, 5.684341886080802e-14, 0)"/>
  <path d="M 393.053 225.372 C 391.05 225.372 390.674 222.829 392.055 221.448 C 393.728 219.775 396.245 221.003 396.245 223.177" style="stroke: black; fill: none; stroke-width: 0.2;" transform="matrix(1, 0, 0, 1, 5.684341886080802e-14, 0)"/>
  <path d="M 405.889 225.306 C 405.955 225.306 407.586 224.971 407.751 224.641 C 408.147 223.848 408.15 223.043 407.684 222.113 C 407.158 221.06 404.112 220.764 403.361 221.515 C 403.002 221.874 402.896 222.714 402.896 223.377 L 402.896 223.377" style="stroke: black; fill: none; stroke-width: 0.2;" transform="matrix(1, 0, 0, 1, 5.684341886080802e-14, 0)"/>
  <path d="M 405.955 230.094 C 409.323 230.094 406.26 233.5 405.091 234.085 C 404.002 234.629 402.63 233.546 402.63 232.821 C 402.63 232.636 402.696 231.89 402.696 231.89" style="stroke: black; fill: none; stroke-width: 0.2;" transform="matrix(1, 0, 0, 1, 5.684341886080802e-14, 0)"/>
  <path d="M 396.112 232.023 C 396.112 232.621 395.026 233.098 394.649 233.286 C 391.21 235.006 389.934 229.695 393.252 229.695 L 393.252 229.762" style="stroke: black; fill: none; stroke-width: 0.2;" transform="matrix(1, 0, 0, 1, 5.684341886080802e-14, 0)"/>
  <path d="M 405.889 252.308 C 407.401 252.308 407.944 249.973 406.953 248.982 C 405.945 247.974 403.228 248.848 403.228 250.312" style="stroke: black; fill: none; stroke-width: 0.2;" transform="matrix(1, 0, 0, 1, 5.684341886080802e-14, 0)"/>
  <path style="stroke: black; fill: none; stroke-width: 0.2;" d="M 393.053 252.574 C 387.303 252.574 394.411 244.649 396.378 248.583 C 396.731 249.288 396.378 249.873 396.378 250.312" transform="matrix(1, 0, 0, 1, 5.684341886080802e-14, 0)"/>
  <path d="M 393.186 257.229 C 393.119 257.229 391.861 257.29 391.789 257.362 C 391.046 258.105 391.824 260.206 392.654 260.621 C 393.696 261.142 395.096 260.772 395.713 260.155 C 395.771 260.098 396.112 258.958 396.112 258.958 C 396.112 258.936 396.112 258.892 396.112 258.892" style="stroke: black; fill: none; stroke-width: 0.2;" transform="matrix(1, 0, 0, 1, 5.684341886080802e-14, 0)"/>
  <path style="stroke: black; fill: none; stroke-width: 0.2;" d="M 405.822 257.229 C 408.294 257.229 407.282 259.561 406.354 260.488 C 405.941 260.901 405.091 260.953 404.758 261.286 C 404.037 262.007 403.089 260.415 402.763 260.089 C 402.707 260.033 402.763 259.025 402.763 259.025 L 402.763 258.958" transform="matrix(1, 0, 0, 1, 5.684341886080802e-14, 0)"/>
  <text x="111.464" y="298.8" style="font-family: &quot;Open Sans&quot;; font-size: 9px; font-weight: bold; text-transform: capitalize; white-space: pre;" transform="matrix(1, 0, 0, 1, 5.684341886080802e-14, 0)">FFN</text>
  <text x="111.464" y="298.8" style="font-family: &quot;Open Sans&quot;; font-size: 9px; font-weight: bold; text-transform: capitalize; white-space: pre;" transform="matrix(1, 0, 0, 1, 5.684341886080802e-14, 0)">FFN</text>
  <text x="376.977" y="298.8" style="font-family: &quot;Open Sans&quot;; font-size: 9px; font-weight: bold; text-transform: capitalize; white-space: pre;" transform="matrix(1, 0, 0, 1, 5.684341886080802e-14, 0)">RNN LSTM</text>
  <text x="243.477" y="298.8" style="font-family: &quot;Open Sans&quot;; font-size: 9px; font-weight: bold; text-transform: capitalize; white-space: pre;" transform="matrix(1, 0, 0, 1, 5.684341886080802e-14, 0)">FFN Cluster</text>
  <rect x="29.754" y="156.049" width="456.689" height="162.786" style="fill: rgba(216, 216, 216, 0);" transform="matrix(1, 0, 0, 1, 5.684341886080802e-14, 0)"/>
</svg>