<?xml version="1.0" encoding="utf-8"?>
<svg width="456.68896484375" height="162.78599548339844" viewBox="29.754 156.049 456.689 162.786" xmlns="http://www.w3.org/2000/svg">
  <defs>
    <style id="bx-google-fonts">@import url(https://fonts.googleapis.com/css?family=Open+Sans:300,300italic,400,400italic,600,600italic,700,700italic,800,800italic);</style>
  </defs>
  <path d="M 100.435 220.002 L 78.495 233.018 L 100.559 193.848 L 78.619 207.359 L 100.435 220.002 Z" style="fill: none; stroke: black;"/>
  <ellipse transform="matrix(1.000001, 0, 0, 1, -198.23391, 10.347672)" cx="309.779" cy="209.527" rx="11.028" ry="11.028" style="fill: rgb(216, 216, 216);"/>
  <path d="M 77.85 232.596 L 102.051 246.71 L 78.495 207.731" style="fill: none; stroke: black;"/>
  <ellipse transform="matrix(1.000001, 0, 0, 1, -242.226815, 23.347672)" cx="309.779" cy="209.527" rx="11.028" ry="11.028" style="fill: rgb(173, 220, 166);"/>
  <ellipse transform="matrix(1.000001, 0, 0, 1, -242.219949, -2.652328)" cx="309.779" cy="209.527" rx="11.028" ry="11.028" style="fill: rgb(173, 220, 166);"/>
  <path d="M 121.076 193.087 L 143.571 220.87 L 121.749 247.092" style="fill: none; stroke: black;"/>
  <ellipse transform="matrix(1.000001, 0, 0, 1, -198.24215, -15.652328)" cx="309.779" cy="209.527" rx="11.028" ry="11.028" style="fill: rgb(216, 216, 216);"/>
  <ellipse transform="matrix(1.000001, 0, 0, 1, -198.240777, 36.347672)" cx="309.779" cy="209.527" rx="11.028" ry="11.028" style="fill: rgb(216, 216, 216);"/>
  <ellipse transform="matrix(1.000001, 0, 0, 1, -155.260728, 10.347672)" cx="309.779" cy="209.527" rx="11.028" ry="11.028" style="fill: rgb(173, 220, 166);"/>
  <path d="M 247.689 216.905 L 225.749 229.921 L 247.813 190.751 L 225.873 204.262 L 247.689 216.905 Z" style="fill: none; stroke: black;"/>
  <path d="M 224.633 229.231 L 248.496 244.229 L 225.749 204.634" style="fill: none; stroke: black;"/>
  <ellipse transform="matrix(1.000001, 0, 0, 1, -95.077592, 20.250519)" cx="309.779" cy="209.527" rx="11.028" ry="11.028" style="fill: rgb(216, 216, 216);"/>
  <ellipse transform="matrix(1.000001, 0, 0, 1, -95.070726, -5.749481)" cx="309.779" cy="209.527" rx="11.028" ry="11.028" style="fill: rgb(216, 216, 216);"/>
  <g transform="matrix(1, 0, 0, 1, 9.379193, -9.995234)">
    <ellipse cx="399.503" cy="227.875" rx="11.028" ry="11.028" style="fill: rgb(158, 165, 255);"/>
    <ellipse cx="355.538" cy="214.875" rx="11.028" ry="11.028" style="fill: rgb(158, 165, 255);"/>
    <ellipse cx="355.495" cy="240.875" rx="11.028" ry="11.028" style="fill: rgb(158, 165, 255);"/>
    <ellipse cx="399.495" cy="201.875" rx="11.028" ry="11.028" style="fill: rgb(158, 165, 255);"/>
    <ellipse cx="442.5" cy="227.875" rx="11.028" ry="11.028" style="fill: rgb(158, 165, 255);"/>
    <ellipse cx="399.496" cy="253.875" rx="11.028" ry="11.028" style="fill: rgb(158, 165, 255);"/>
  </g>
  <path d="M 414.278 192.885 L 436.571 220.87 L 414.614 247.227" style="fill: none; stroke: black;"/>
  <path d="M 415.425 220.512 L 436.324 220.54" style="fill: none; stroke: black;"/>
  <g transform="matrix(1, 0, 0, 1, 7.370773, -9.169706)">
    <ellipse cx="399.503" cy="227.875" rx="11.028" ry="11.028" style="fill: rgb(255, 235, 162);"/>
    <ellipse cx="355.538" cy="214.875" rx="11.028" ry="11.028" style="fill: rgb(255, 235, 162);"/>
    <ellipse cx="355.495" cy="240.875" rx="11.028" ry="11.028" style="fill: rgb(255, 235, 162);"/>
    <ellipse cx="399.495" cy="201.875" rx="11.028" ry="11.028" style="fill: rgb(255, 235, 162);"/>
    <ellipse cx="442.5" cy="227.875" rx="11.028" ry="11.028" style="fill: rgb(255, 235, 162);"/>
    <ellipse cx="399.496" cy="253.875" rx="11.028" ry="11.028" style="fill: rgb(255, 235, 162);"/>
  </g>
  <path d="M 393.435 220.002 L 371.495 233.018 L 393.559 193.848 L 371.619 207.359 L 393.435 220.002 Z" style="fill: none; stroke: black;"/>
  <ellipse cx="404.503" cy="219.875" rx="11.028" ry="11.028" style="fill: rgb(216, 216, 216);"/>
  <path d="M 369.572 231.991 L 393.435 246.653 L 371.495 207.731" style="fill: none; stroke: black;"/>
  <ellipse cx="360.538" cy="206.875" rx="11.028" ry="11.028" style="fill: rgb(173, 220, 166);"/>
  <ellipse cx="360.495" cy="232.875" rx="11.028" ry="11.028" style="fill: rgb(173, 220, 166);"/>
  <ellipse cx="404.495" cy="193.875" rx="11.028" ry="11.028" style="fill: rgb(216, 216, 216);"/>
  <ellipse cx="447.5" cy="219.875" rx="11.028" ry="11.028" style="fill: rgb(173, 220, 166);"/>
  <rect transform="matrix(1.000001, 0, 0, 0.999998, 357.396556, 170.158544)" x="40.702" y="19.189" width="5.757" height="3.636" style="fill: rgb(162, 162, 162);"/>
  <rect transform="matrix(1.000002, 0, 0, 0.999998, 364.395995, 170.158758)" x="40.702" y="19.189" width="5.757" height="3.636" style="fill: rgb(162, 162, 162);"/>
  <rect transform="matrix(1.000001, 0, 0, 0.999998, 364.395641, 175.158758)" x="40.702" y="19.189" width="5.757" height="3.636" style="fill: rgb(162, 162, 162);"/>
  <rect transform="matrix(1.000002, 0, 0, 0.999998, 357.39508, 175.158819)" x="40.702" y="19.189" width="5.757" height="3.636" style="fill: rgb(162, 162, 162);"/>
  <rect transform="matrix(1.000001, 0, 0, 0.999998, 357.39442, 196.159246)" x="40.702" y="19.189" width="5.757" height="3.636" style="fill: rgb(162, 162, 162);"/>
  <rect transform="matrix(1.000002, 0, 0, 0.999998, 364.393859, 196.159475)" x="40.702" y="19.189" width="5.757" height="3.636" style="fill: rgb(162, 162, 162);"/>
  <rect transform="matrix(1.000001, 0, 0, 0.999998, 364.393505, 201.159475)" x="40.702" y="19.189" width="5.757" height="3.636" style="fill: rgb(162, 162, 162);"/>
  <rect transform="matrix(1.000002, 0, 0, 0.999998, 357.392944, 201.159536)" x="40.702" y="19.189" width="5.757" height="3.636" style="fill: rgb(162, 162, 162);"/>
  <rect transform="matrix(1.000002, 0, 0, 0.999998, 357.392333, 223.159918)" x="40.702" y="19.189" width="5.757" height="3.636" style="fill: rgb(162, 162, 162);"/>
  <ellipse cx="404.496" cy="245.875" rx="11.028" ry="11.028" style="fill: rgb(216, 216, 216);"/>
  <rect transform="matrix(1.000001, 0, 0, 0.999998, 364.391826, 223.160131)" x="40.702" y="19.189" width="5.757" height="3.636" style="fill: rgb(162, 162, 162);"/>
  <rect transform="matrix(1.000002, 0, 0, 0.999998, 364.391418, 228.160131)" x="40.702" y="19.189" width="5.757" height="3.636" style="fill: rgb(162, 162, 162);"/>
  <rect transform="matrix(1.000001, 0, 0, 0.999998, 357.390911, 228.160192)" x="40.702" y="19.189" width="5.757" height="3.636" style="fill: rgb(162, 162, 162);"/>
  <path d="M 410.822 191.168 C 410.822 191.168 411.676 190.647 411.753 190.57 C 412.135 190.188 412.618 189.646 412.618 188.907 C 412.618 188.874 412.75 187.71 412.684 187.71 C 412.684 187.71 411.695 186.783 411.421 186.646 C 409.293 185.582 408.029 187.144 408.029 189.173 C 408.029 189.264 408.095 189.372 408.095 189.372" style="stroke: black; fill: none; stroke-width: 0.2;"/>
  <path d="M 398.053 191.501 C 394.809 191.501 396.482 186.76 399.05 186.247 C 400.751 185.907 400.715 187.445 401.378 188.109 C 401.393 188.124 401.445 189.306 401.445 189.306" style="stroke: black; fill: none; stroke-width: 0.2;"/>
  <path d="M 398.053 196.223 C 397.986 196.223 397.028 196.183 396.989 196.223 C 396.109 197.103 396.175 198.41 397.521 199.083 C 398.364 199.504 400.411 199.717 401.046 199.083 C 401.123 199.005 401.578 197.752 401.578 197.752" style="stroke: black; fill: none; stroke-width: 0.2;"/>
  <path style="stroke: black; fill: none; stroke-width: 0.2;" d="M 410.889 196.289 C 410.889 196.289 413.871 196.366 413.083 197.154 C 412.614 197.623 412.421 198.482 411.886 199.016 C 410.293 200.609 408.095 199.929 408.095 197.952 L 408.095 197.952"/>
  <path d="M 398.053 217.372 C 396.05 217.372 395.674 214.829 397.055 213.448 C 398.728 211.775 401.245 213.003 401.245 215.177" style="stroke: black; fill: none; stroke-width: 0.2;"/>
  <path d="M 410.889 217.306 C 410.955 217.306 412.586 216.971 412.751 216.641 C 413.147 215.848 413.15 215.043 412.684 214.113 C 412.158 213.06 409.112 212.764 408.361 213.515 C 408.002 213.874 407.896 214.714 407.896 215.377 L 407.896 215.377" style="stroke: black; fill: none; stroke-width: 0.2;"/>
  <path d="M 410.955 222.094 C 414.323 222.094 411.26 225.5 410.091 226.085 C 409.002 226.629 407.63 225.546 407.63 224.821 C 407.63 224.636 407.696 223.89 407.696 223.89" style="stroke: black; fill: none; stroke-width: 0.2;"/>
  <path d="M 401.112 224.023 C 401.112 224.621 400.026 225.098 399.649 225.286 C 396.21 227.006 394.934 221.695 398.252 221.695 L 398.252 221.762" style="stroke: black; fill: none; stroke-width: 0.2;"/>
  <path d="M 410.889 244.308 C 412.401 244.308 412.944 241.973 411.953 240.982 C 410.945 239.974 408.228 240.848 408.228 242.312" style="stroke: black; fill: none; stroke-width: 0.2;"/>
  <path style="stroke: black; fill: none; stroke-width: 0.2;" d="M 398.053 244.574 C 392.303 244.574 399.411 236.649 401.378 240.583 C 401.731 241.288 401.378 241.873 401.378 242.312"/>
  <path d="M 398.186 249.229 C 398.119 249.229 396.861 249.29 396.789 249.362 C 396.046 250.105 396.824 252.206 397.654 252.621 C 398.696 253.142 400.096 252.772 400.713 252.155 C 400.771 252.098 401.112 250.958 401.112 250.958 C 401.112 250.936 401.112 250.892 401.112 250.892" style="stroke: black; fill: none; stroke-width: 0.2;"/>
  <path style="stroke: black; fill: none; stroke-width: 0.2;" d="M 410.822 249.229 C 413.294 249.229 412.282 251.561 411.354 252.488 C 410.941 252.901 410.091 252.953 409.758 253.286 C 409.037 254.007 408.089 252.415 407.763 252.089 C 407.707 252.033 407.763 251.025 407.763 251.025 L 407.763 250.958"/>
  <text x="100.464" y="290.8" style="font-family: &quot;Open Sans&quot;; font-size: 9px; font-weight: bold; text-transform: capitalize; white-space: pre;">FFN</text>
  <text x="100.464" y="290.8" style="font-family: &quot;Open Sans&quot;; font-size: 9px; font-weight: bold; text-transform: capitalize; white-space: pre;">FFN</text>
  <text x="381.977" y="290.8" style="font-family: &quot;Open Sans&quot;; font-size: 9px; font-weight: bold; text-transform: capitalize; white-space: pre;">RNN LSTM</text>
  <text x="229.477" y="290.8" style="font-family: &quot;Open Sans&quot;; font-size: 9px; font-weight: bold; text-transform: capitalize; white-space: pre;">FFN CLUSTER</text>
  <path d="M 122.54 220.473 L 142.932 220.467" style="fill: none; stroke: black;"/>
  <rect transform="matrix(1.000002, 0, 0, 0.999998, 357.39096, 223.160314)" x="40.702" y="19.189" width="5.757" height="3.636" style="fill: rgb(162, 162, 162);"/>
  <path d="M 291.408 203.767 L 269.468 190.751 L 291.532 229.921 L 269.592 216.41 L 291.408 203.767 Z" style="fill: none; stroke: black;" transform="matrix(-1, 0, 0, -1, 560.999984, 420.67201)"/>
  <ellipse cx="258.806" cy="216.778" rx="11.028" ry="11.028" style="fill: rgb(173, 220, 166);"/>
  <ellipse cx="258.799" cy="190.778" rx="11.028" ry="11.028" style="fill: rgb(173, 220, 166);"/>
  <path d="M 268.785 219.632 L 292.648 204.634 L 269.901 244.229" style="fill: none; stroke: black;" transform="matrix(-1, 0, 0, -1, 561.432969, 448.863008)"/>
  <ellipse cx="255.799" cy="240.778" rx="11.028" ry="11.028" style="fill: rgb(173, 220, 166);" transform="matrix(0.999999, 0, 0, 1, 3.006229, 2)"/>
  <ellipse cx="302.116" cy="229.778" rx="11.028" ry="11.028" style="fill: rgb(216, 216, 216);"/>
  <ellipse cx="255.123" cy="201.778" rx="11.028" ry="11.028" style="fill: rgb(216, 216, 216);" transform="matrix(1.000001, 0, 0, 1, 46.977659, 2)"/>
</svg>